<svg width="113" height="113" viewBox="0 0 113 113" fill="none" xmlns="http://www.w3.org/2000/svg">
<circle cx="56.5" cy="56.5" r="56.5" fill="white"/>
<path d="M93 38.7461C93 38.3868 92.9857 38.0215 92.9618 37.6517C92.7685 34.8183 91.6083 32.1066 89.7418 29.7484C86.9276 26.2013 82.569 23.3405 76.9071 21.3093C71.2383 19.2851 64.2325 18.1036 55.9998 18.1026C45.0223 18.1084 36.2263 20.1947 29.8722 23.6115C26.7 25.3254 24.1293 27.3817 22.2579 29.7484C20.3891 32.1066 19.2288 34.8183 19.038 37.6504C19.0117 38.0215 18.9997 38.3868 18.9997 38.7461C18.9997 38.8796 19.0164 39.0051 19.0189 39.1375C19.0117 39.3249 18.9997 39.5157 18.9997 39.7008C18.9949 41.6892 19.4126 43.5139 20.198 45.0667C20.7828 46.2317 21.5634 47.2317 22.4489 48.0468C23.7832 49.2713 25.33 50.0853 26.8887 50.614C27.4687 50.8098 28.0534 50.9578 28.6359 51.0819V84.306C28.6359 85.1104 28.9605 85.898 29.531 86.466C30.0991 87.0355 30.8868 87.3612 31.6912 87.3612H55.9998H80.3085C81.113 87.3612 81.8982 87.0355 82.4687 86.466C83.0368 85.898 83.3638 85.1103 83.3638 84.306V51.0889C83.7719 51.0018 84.1801 50.9026 84.5884 50.7809C86.6675 50.1592 88.7726 49.0492 90.3958 47.1707C91.2026 46.2363 91.8709 45.1169 92.3197 43.8528C92.7685 42.5902 92.9998 41.1926 92.9998 39.7007C92.9998 39.5384 92.9879 39.3701 92.9808 39.2054C92.9857 39.0516 93 38.9011 93 38.7461ZM85.271 42.453C85.0228 42.9542 84.7125 43.3613 84.3258 43.7265C83.7505 44.2695 82.9818 44.7135 82.0701 45.0286C81.1605 45.3448 80.1222 45.5239 79.1125 45.5668C77.4822 45.6397 76.1934 46.9883 76.1934 48.6198V49.3884V82.228H54.94H33.6866V49.3882V48.6196C33.6866 46.9881 32.3976 45.6395 30.7673 45.5667C29.8699 45.5285 28.9485 45.3828 28.1179 45.1287C26.8599 44.7456 25.855 44.1358 25.1914 43.3456C24.8548 42.9459 24.5851 42.4923 24.3822 41.9148C24.2199 41.4433 24.1054 40.8789 24.0671 40.1975L24.0743 40.0266C24.1723 38.641 24.7403 37.1767 25.9743 35.6406C27.8099 33.3468 31.1873 31.0088 36.0687 29.3081C40.9429 27.6002 47.2875 26.513 54.94 26.5142C65.1419 26.507 73.0189 28.4571 78.1889 31.1961C80.7764 32.5602 82.6764 34.1129 83.9056 35.6406C85.1373 37.1767 85.7055 38.6411 85.8056 40.0255L85.8079 40.1258C85.7604 41.1174 85.5575 41.8658 85.271 42.453Z" fill="#DC0000"/>
<path d="M51.5196 46.3127C50.6747 46.3127 49.9919 46.9955 49.9919 47.8404C49.9919 48.6854 50.6746 49.3681 51.5196 49.3681C52.3646 49.3681 53.0473 48.6854 53.0473 47.8404C53.0472 46.9954 52.3646 46.3127 51.5196 46.3127Z" fill="#DC0000"/>
<path d="M67.5599 56.7007C67.5599 55.4343 66.5336 54.4093 65.2685 54.4093C64.001 54.4093 62.977 55.4344 62.977 56.7007C62.977 57.9656 64.001 58.9921 65.2685 58.9921C66.5336 58.9922 67.5599 57.9658 67.5599 56.7007Z" fill="#DC0000"/>
<path d="M44.1868 60.0615C43.1748 60.0615 42.3536 60.8824 42.3536 61.8947C42.3536 62.9067 43.1748 63.7279 44.1868 63.7279C45.1988 63.7279 46.0201 62.9067 46.0201 61.8947C46.0201 60.8825 45.199 60.0615 44.1868 60.0615Z" fill="#DC0000"/>
<path d="M69.5458 38.369C68.7009 38.369 68.0181 39.0528 68.0181 39.8967C68.0181 40.7405 68.7007 41.4244 69.5458 41.4244C70.3884 41.4244 71.0735 40.7405 71.0735 39.8967C71.0735 39.0528 70.3884 38.369 69.5458 38.369Z" fill="#DC0000"/>
<path d="M54.5749 31.6472C54.5749 30.8035 53.8898 30.1195 53.0472 30.1195C52.2023 30.1195 51.5195 30.8033 51.5195 31.6472C51.5195 32.491 52.2021 33.1749 53.0472 33.1749C53.8898 33.1749 54.5749 32.491 54.5749 31.6472Z" fill="#DC0000"/>
<path d="M36.8541 39.5911C37.3604 39.5911 37.7707 39.1807 37.7707 38.6745C37.7707 38.1683 37.3604 37.7579 36.8541 37.7579C36.3479 37.7579 35.9375 38.1683 35.9375 38.6745C35.9375 39.1807 36.3479 39.5911 36.8541 39.5911Z" fill="#DC0000"/>
<path d="M41.7426 76.8658C42.2489 76.8658 42.6593 76.4554 42.6593 75.9491C42.6593 75.4429 42.2489 75.0325 41.7426 75.0325C41.2364 75.0325 40.826 75.4429 40.826 75.9491C40.826 76.4554 41.2364 76.8658 41.7426 76.8658Z" fill="#DC0000"/>
<path d="M68.1709 72.2445C67.221 72.2445 66.4524 73.0143 66.4524 73.9631C66.4524 74.9118 67.221 75.6816 68.1709 75.6816C69.1186 75.6816 69.8895 74.9118 69.8895 73.9631C69.8896 73.0143 69.1186 72.2445 68.1709 72.2445Z" fill="#DC0000"/>
<path d="M54.7968 70.8733C54.0186 70.8733 53.3861 71.5046 53.3861 72.2828C53.3861 73.061 54.0186 73.6923 54.7968 73.6923C55.5749 73.6923 56.2051 73.061 56.2051 72.2828C56.2052 71.5046 55.5751 70.8733 54.7968 70.8733Z" fill="#DC0000"/>
</svg>
